<svg xmlns="http://www.w3.org/2000/svg" xmlns:xlink="http://www.w3.org/1999/xlink" width="500" zoomAndPan="magnify" viewBox="0 0 375 374.999991" height="500" preserveAspectRatio="xMidYMid meet" version="1.0"><defs><g/></defs><g fill="#ffffff" fill-opacity="1"><g transform="translate(76.610156, 212.624986)"><g><path d="M 30.960938 -18.71875 L 18.574219 -18.71875 L 24.769531 -36.144531 Z M 49.246094 0 L 29.375 -48.960938 L 20.230469 -48.960938 L 0.359375 0 L 11.953125 0 L 15.480469 -9.863281 L 34.128906 -9.863281 L 37.65625 0 Z M 49.246094 0 "/></g></g></g><g fill="#ffffff" fill-opacity="1"><g transform="translate(140.618125, 212.624986)"><g><path d="M 27.9375 -14.328125 C 27.9375 -11.089844 25.199219 -8.425781 21.960938 -8.425781 L 15.121094 -8.425781 L 15.121094 -20.230469 L 21.960938 -20.230469 C 25.199219 -20.230469 27.9375 -17.496094 27.9375 -14.328125 Z M 24.550781 -34.777344 C 24.550781 -31.679688 21.960938 -29.089844 18.863281 -29.089844 L 15.121094 -29.089844 L 15.121094 -40.464844 L 18.863281 -40.464844 C 21.960938 -40.464844 24.550781 -37.945312 24.550781 -34.777344 Z M 38.953125 -14.039062 C 38.953125 -20.664062 34.488281 -25.054688 29.015625 -26.351562 C 32.6875 -28.007812 34.847656 -31.753906 34.847656 -36.71875 C 34.847656 -43.414062 29.519531 -48.960938 21.167969 -48.960938 L 4.320312 -48.960938 L 4.320312 0 L 24.121094 0 C 33.480469 0 38.953125 -5.617188 38.953125 -14.039062 Z M 38.953125 -14.039062 "/></g></g></g><g fill="#ffffff" fill-opacity="1"><g transform="translate(194.690104, 212.624986)"><g><path d="M 15.121094 -17.496094 L 15.191406 -17.496094 L 26.855469 0 L 40.535156 0 L 26.496094 -18 C 32.6875 -19.511719 37.65625 -24.984375 37.65625 -33.265625 C 37.65625 -42.550781 30.601562 -48.960938 22.679688 -48.960938 L 4.320312 -48.960938 L 4.320312 0 L 15.121094 0 Z M 20.878906 -40.464844 C 24.046875 -40.464844 27.359375 -37.726562 27.359375 -33.265625 C 27.359375 -28.585938 24.046875 -25.992188 20.878906 -25.992188 L 15.121094 -25.992188 L 15.121094 -40.464844 Z M 20.878906 -40.464844 "/></g></g></g><g fill="#ffffff" fill-opacity="1"><g transform="translate(248.762084, 212.624986)"><g><path d="M 30.960938 -18.71875 L 18.574219 -18.71875 L 24.769531 -36.144531 Z M 49.246094 0 L 29.375 -48.960938 L 20.230469 -48.960938 L 0.359375 0 L 11.953125 0 L 15.480469 -9.863281 L 34.128906 -9.863281 L 37.65625 0 Z M 49.246094 0 "/></g></g></g></svg>